# xmcd
# 
# Track frame offsets:
#     150
#     15225
#     27300
#     46723
#     57598
#     75220
#     90500
#     111595
#     124048
#     140653
# 
# Disc length: 2062
# 
# Revision: 1
# Processed by: cddbd v1.5.2PL0 Copyright (c) Steve Scherf et al.
# Submitted via: BonkEnc v1.0.5
# 
DISCID=76080c0a
DTITLE=Big Joe Williams - Nine String Guitar Blues
DYEAR=1990
DGENRE=Blues
TTITLE0=I got the Best King Biscuit
TTITLE1=Haunted House Blues
TTITLE2=I Done Stop Hollering
TTITLE3=I Got a Bad Mind
TTITLE4=Long Tall Woman, Skinny Mama Too
TTITLE5=Stack of Dollars
TTITLE6=Indiana Woman Blues
TTITLE7=My Baby Keeps Hanging Around
TTITLE8=Jiving the Blues
TTITLE9=Jump, Baby -- Jump!
EXTD=
EXTT0=
EXTT1=
EXTT2=
EXTT3=
EXTT4=
EXTT5=
EXTT6=
EXTT7=
EXTT8=
EXTT9=
PLAYORDER=
